{"title":"The.Hateful.Eight.2015.BRRip.480p.x264.AAC-VYTO [P2PDL]","uid":13755330,"size":692102857,"categoryP":"video","categoryS":"movies","magnet":"?xt=urn:btih:35ab7a53d4ce88ffc302f02be2cf03c211605f95&amp;dn=The.Hateful.Eight.2015.BRRip.480p.x264.AAC-VYTO+%5BP2PDL%5D&amp;tr=udp%3A%2F%2Ftracker.leechers-paradise.org%3A6969&amp;tr=udp%3A%2F%2Fzer0day.ch%3A1337&amp;tr=udp%3A%2F%2Fopen.demonii.com%3A1337&amp;tr=udp%3A%2F%2Ftracker.coppersurfer.tk%3A6969&amp;tr=udp%3A%2F%2Fexodus.desync.com%3A6969","seeders":2,"leechers":7,"uploader":"VYTOP2PDL","files":7,"time":1457191012,"description":"The.Hateful.Eight.2015.BRRip.480p.x264.AAC-VYTO\r\n\r\n\r\nGenre: Crime, Drama, Mystery \nhttp://www.imdb.com/title/tt3460252/\r\n\r\n\r\nFormat                                   : MPEG-4\r\nFile size                                : 653 MiB\r\nDuration                                 : 2h 47mn\r\nOverall bit rate                         : 544 Kbps\r\n\r\nVideo\r\nFormat                                   : AVC\r\nBit rate                                 : 501 Kbps\r\nWidth                                    : 720 pixels\r\nHeight                                   : 256 pixels\r\nDisplay aspect ratio                     : 2.813\r\nFrame rate mode                          : Constant\r\nFrame rate                               : 23.976 fps\r\nBit depth                                : 8 bits\r\nStream size                              : 601 MiB (92%)\r\nWriting library                          : x264\r\n\r\nAudio\r\nFormat                                   : AAC\r\nBit rate mode                            : Variable\r\nBit rate                                 : 40.0 Kbps\r\nChannel(s)                               : 2 channels\r\nChannel positions                        : Front: L R\r\nSampling rate                            : 48.0 KHz \r\nStream size                              : 48.0 MiB (7%)\r\nLanguage                                 : English\r\n\r\nSubtitle                                 : Yes (English)\r\n\r\nScreen Shots: (Click to view)\r\n \nhttp://ititli.com/X2O \nhttp://ititli.com/X69 \nhttp://ititli.com/X6X \nhttp://ititli.com/X6q \nhttp://ititli.com/X6r \nhttp://ititli.com/X61 \nhttp://ititli.com/X6T \nhttp://ititli.com/X6W \nhttp://ititli.com/X6g \nhttp://ititli.com/X6n \nhttp://ititli.com/X6w \nhttp://ititli.com/X62\r\n----------------------------------------------------------------------------------------------------\r\n\r\n\r\nEncoder Notes: Looking For Early Access To Anything You Can Provide WEBDL, DVDScr, DVDR, BluRay,\r\nDirect Audio, Music Releases and Seedboxes. If You Got anything to offer please contact us.\r\n\r\nSupport us by donating BC - 1FgwdzPsd1y25Gea8wP1qni35uGCtmkRCD\r\n\r\nFind us and join!","torrent":{"xt":"urn:btih:35ab7a53d4ce88ffc302f02be2cf03c211605f95","amp;dn":"The.Hateful.Eight.2015.BRRip.480p.x264.AAC-VYTO+%5BP2PDL%5D","amp;tr":["udp%3A%2F%2Ftracker.leechers-paradise.org%3A6969","udp%3A%2F%2Fzer0day.ch%3A1337","udp%3A%2F%2Fopen.demonii.com%3A1337","udp%3A%2F%2Ftracker.coppersurfer.tk%3A6969","udp%3A%2F%2Fexodus.desync.com%3A6969"],"infoHash":"35ab7a53d4ce88ffc302f02be2cf03c211605f95","infoHashBuffer":{"type":"Buffer","data":[53,171,122,83,212,206,136,255,195,2,240,43,226,207,3,194,17,96,95,149]},"announce":[],"urlList":[]}}